# xmcd
#
# Track frame offsets:
#	150
#	21465
#	45980
#
# Disc length: 877 seconds
#
# Revision: 1
# Processed by: cddbd v1.5PL3 Copyright (c) Steve Scherf et al.
# Submitted via: CDex 1.50Beta5
#
DISCID=1c036b03
DTITLE=Duran Duran - Ordinary World
DYEAR=1900
DGENRE=Rock -> New Wave
TTITLE0=Ordinary World
TTITLE1=Save A Prayer
TTITLE2=The Reflex
EXTD=
EXTT0=
EXTT1=
EXTT2=
PLAYORDER=
